Coordinates
version=1
nRows=18
nColumns=34
inDegrees=no

Units are S.I. units (second, meters, Newtons, ...)
If the header above contains a line with 'inDegrees', this indicates whether rotational values are in degrees (yes) or radians (no).

endheader
time	pelvis_tilt	pelvis_list	pelvis_rotation	pelvis_tx	pelvis_ty	pelvis_tz	hip_flexion_r	hip_adduction_r	hip_rotation_r	knee_angle_r	ankle_angle_r	subtalar_angle_r	mtp_angle_r	hip_flexion_l	hip_adduction_l	hip_rotation_l	knee_angle_l	ankle_angle_l	subtalar_angle_l	mtp_angle_l	lumbar_extension	lumbar_bending	lumbar_rotation	arm_flex_r	arm_add_r	arm_rot_r	elbow_flex_r	pro_sup_r	arm_flex_l	arm_add_l	arm_rot_l	elbow_flex_l	pro_sup_l
0	0.160973	-0.00626641	-0.0823998	-0.129038	0.969262	-0.577407	-0.134948	-0.19667	-0.490858	0.192412	0.301282	0.553932	-0.0952532	-0.149935	-0.19343	-0.595858	0.237836	0.337225	0.600527	-0.0952532	-0.327086	-0.0303529	0.0418792	-0.0608695	-0.242903	-0.117857	2.15149	1.47469	-0.0490831	-0.213387	-0.0810767	2.14639	1.5213
0.01	0.160917	-0.00609569	-0.0820934	-0.129475	0.969441	-0.57725	-0.134363	-0.196902	-0.492149	0.192455	0.300919	0.55542	-0.0952531	-0.149255	-0.193323	-0.595424	0.237648	0.336518	0.600173	-0.0952532	-0.327493	-0.0304438	0.0418325	-0.0601529	-0.243048	-0.117546	2.15128	1.47607	-0.0483536	-0.213519	-0.0802236	2.14595	1.51974
0.02	0.160868	-0.00604445	-0.0817594	-0.129958	0.969628	-0.577087	-0.133781	-0.19685	-0.492818	0.192317	0.300357	0.555964	-0.0952531	-0.148515	-0.193331	-0.59479	0.237408	0.335703	0.59957	-0.0952532	-0.328152	-0.0304571	0.0417869	-0.0591663	-0.24347	-0.117017	2.15101	1.47732	-0.0473191	-0.21386	-0.0792343	2.14552	1.51836
0.03	0.160821	-0.00611453	-0.0813999	-0.130486	0.969826	-0.576917	-0.133198	-0.196507	-0.492839	0.191991	0.29959	0.555532	-0.0952531	-0.147711	-0.193454	-0.593947	0.237115	0.334777	0.59871	-0.0952532	-0.32906	-0.0303917	0.0417454	-0.0579089	-0.244168	-0.116273	2.15069	1.47846	-0.0459763	-0.214412	-0.0781076	2.14512	1.51716
0.04	0.160755	-0.00630812	-0.0810218	-0.131061	0.970034	-0.576739	-0.132588	-0.195858	-0.492151	0.191466	0.298611	0.554058	-0.0952531	-0.146817	-0.193697	-0.592887	0.236772	0.333745	0.597572	-0.0952532	-0.330204	-0.030247	0.0417168	-0.0563775	-0.245139	-0.115319	2.1503	1.47948	-0.0443172	-0.215178	-0.0768416	2.14473	1.51618
0.05	0.160627	-0.00662217	-0.0806392	-0.131684	0.970253	-0.576553	-0.131889	-0.194899	-0.490674	0.190752	0.297418	0.551448	-0.0952531	-0.145775	-0.194063	-0.591608	0.236401	0.332611	0.59613	-0.0952531	-0.331548	-0.0300276	0.0417146	-0.0545656	-0.246378	-0.114169	2.14986	1.48036	-0.0423305	-0.216161	-0.0754345	2.14435	1.51542
0.06	0.160366	-0.00704213	-0.0802702	-0.132356	0.970478	-0.576357	-0.130986	-0.193647	-0.48832	0.189897	0.296018	0.547602	-0.0952531	-0.144488	-0.194556	-0.590108	0.236046	0.331384	0.594346	-0.0952531	-0.333034	-0.0297487	0.0417522	-0.0524625	-0.247868	-0.112847	2.14936	1.48111	-0.0400041	-0.217356	-0.0738868	2.14396	1.51488
0.07	0.159877	-0.00753833	-0.0799318	-0.133082	0.970703	-0.576149	-0.12971	-0.192147	-0.485018	0.18901	0.294444	0.542422	-0.095253	-0.142818	-0.195167	-0.588375	0.235774	0.330079	0.592154	-0.0952531	-0.334572	-0.0294387	0.0418373	-0.0500536	-0.249576	-0.111389	2.1488	1.48172	-0.037328	-0.218756	-0.0722025	2.14357	1.51452
0.08	0.159037	-0.00806405	-0.0796337	-0.133865	0.970917	-0.575931	-0.127826	-0.190483	-0.480721	0.188277	0.292749	0.535817	-0.095253	-0.140583	-0.195879	-0.58636	0.235672	0.328708	0.589438	-0.0952531	-0.336042	-0.0291409	0.0419673	-0.0473232	-0.251454	-0.109841	2.14817	1.48223	-0.0342962	-0.220347	-0.0703918	2.14315	1.51429
0.09	0.157705	-0.00855397	-0.0793748	-0.13471	0.971107	-0.575705	-0.125036	-0.18878	-0.47542	0.187977	0.29102	0.527711	-0.095253	-0.137571	-0.196651	-0.583959	0.235843	0.327288	0.586007	-0.0952531	-0.337301	-0.0289132	0.0421269	-0.0442575	-0.253442	-0.108249	2.14747	1.48269	-0.030907	-0.222108	-0.0684748	2.14271	1.51407
0.1	0.155732	-0.00892528	-0.0791435	-0.135621	0.971257	-0.575473	-0.120985	-0.187207	-0.46915	0.188495	0.289374	0.518053	-0.095253	-0.133538	-0.197419	-0.580997	0.236405	0.325839	0.581576	-0.0952531	-0.338193	-0.0288261	0.0422871	-0.0408451	-0.255483	-0.106646	2.14669	1.48313	-0.0271635	-0.224011	-0.0664841	2.14224	1.51376
0.11	0.152969	-0.0090858	-0.0789213	-0.136605	0.97135	-0.575244	-0.115271	-0.185973	-0.461995	0.190314	0.287952	0.506825	-0.095253	-0.128227	-0.198097	-0.577225	0.237494	0.324381	0.575764	-0.095253	-0.338561	-0.0289528	0.0424088	-0.0370752	-0.257539	-0.105043	2.14585	1.48362	-0.0230713	-0.226025	-0.0644606	2.14176	1.51322
0.12	0.149273	-0.00895127	-0.0786875	-0.137671	0.971365	-0.575025	-0.107471	-0.18529	-0.454068	0.193971	0.286906	0.494037	-0.095253	-0.121363	-0.198598	-0.572336	0.239276	0.322947	0.568122	-0.095253	-0.338259	-0.02935	0.0424497	-0.0329342	-0.259608	-0.103428	2.14499	1.48422	-0.0186354	-0.228118	-0.0624454	2.14128	1.51237
0.13	0.1445	-0.00847402	-0.0784216	-0.138829	0.97128	-0.574827	-0.0971691	-0.18532	-0.445462	0.199982	0.286358	0.479677	-0.0952529	-0.11264	-0.198878	-0.566015	0.241981	0.32159	0.558194	-0.095253	-0.337154	-0.0300271	0.0423732	-0.028402	-0.261724	-0.101774	2.14413	1.48496	-0.0138553	-0.230261	-0.0604739	2.14084	1.51116
0.14	0.138506	-0.00766661	-0.0781034	-0.140092	0.97107	-0.57466	-0.0839998	-0.186123	-0.436243	0.208748	0.286375	0.463722	-0.0952529	-0.101715	-0.198971	-0.557972	0.245908	0.320387	0.545593	-0.095253	-0.335123	-0.0309216	0.0421536	-0.0234476	-0.263962	-0.100044	2.14336	1.48585	-0.00872256	-0.232428	-0.0585743	2.14048	1.50965
0.15	0.131156	-0.00662856	-0.0777145	-0.141472	0.970707	-0.574533	-0.0677193	-0.187594	-0.426404	0.220442	0.286918	0.446112	-0.0952529	-0.088229	-0.199023	-0.547985	0.251426	0.319437	0.530053	-0.095253	-0.332076	-0.0318752	0.041783	-0.0180257	-0.266426	-0.0981994	2.14275	1.48685	-0.00321885	-0.234582	-0.0567668	2.14025	1.50795
0.16	0.122344	-0.00556772	-0.0772406	-0.142983	0.970168	-0.574449	-0.0482881	-0.189405	-0.415798	0.234882	0.287808	0.426679	-0.0952529	-0.0718448	-0.199311	-0.535922	0.25895	0.318861	0.511484	-0.095253	-0.327969	-0.0326216	0.0412814	-0.0120742	-0.269242	-0.0962108	2.14239	1.48788	0.00268712	-0.236683	-0.055061	2.14021	1.50619
0.17	0.112026	-0.00479978	-0.0766717	-0.144632	0.969428	-0.574407	-0.0259373	-0.190978	-0.404064	0.251455	0.288696	0.405061	-0.0952529	-0.0522972	-0.200242	-0.521764	0.268903	0.31878	0.489985	-0.0952529	-0.322834	-0.0327975	0.0407028	-0.00551556	-0.272542	-0.094065	2.14236	1.48885	0.00904597	-0.23869	-0.0534519	2.14043	1.50443
